<svg width="28" height="28" viewBox="0 0 28 28" fill="none" xmlns="http://www.w3.org/2000/svg">
<path d="M12.9145 1.19109C14.1302 1.07023 15.3825 1.39562 16.3855 2.09289C17.7543 3.02531 18.638 4.63257 18.6637 6.29179C18.6698 7.4025 18.6659 8.5132 18.6659 9.6239C18.6714 9.92578 18.5095 10.2238 18.2509 10.3808C17.9123 10.5984 17.4316 10.535 17.1587 10.2397C16.9865 10.0641 16.9055 9.81531 16.9165 9.57195C16.9165 8.90914 16.9176 8.24687 16.9159 7.58406C14.9707 7.57859 13.026 7.59117 11.0813 7.57804C11.1087 6.99726 11.0228 6.40554 11.1584 5.8346C13.0605 5.83187 14.9625 5.83351 16.8645 5.83351C16.7311 5.03726 16.3171 4.29078 15.7035 3.76468C15.0998 3.23968 14.3095 2.93726 13.5095 2.91976C12.5732 2.88585 11.6315 3.25335 10.9654 3.91179C10.3146 4.54179 9.9307 5.43484 9.91812 6.33992C9.91211 7.45335 9.92195 8.56679 9.91375 9.67968C9.9039 10.1177 9.51726 10.5011 9.07976 10.5104C8.61547 10.5421 8.17687 10.144 8.16922 9.67804C8.16265 8.98023 8.16976 8.28242 8.16594 7.5846C7.75906 7.58515 7.35219 7.5775 6.94586 7.58789C6.50945 7.6021 6.1414 7.9882 6.1239 8.42078C5.63992 13.0709 5.15375 17.7204 4.67195 22.371C4.60742 22.8583 5.02742 23.3341 5.51797 23.3313C11.153 23.3357 16.7885 23.3324 22.4235 23.3335C22.9343 23.3652 23.3964 22.8823 23.328 22.3716C22.8599 17.8522 22.3869 13.3339 21.9171 8.81507C21.893 8.61765 21.887 8.41695 21.8405 8.22335C21.7487 7.87226 21.4167 7.6032 21.0541 7.58789C20.6473 7.57531 20.2398 7.59007 19.8324 7.58078C19.8264 6.99835 19.8532 6.41484 19.8062 5.83351C20.5023 5.8614 21.228 5.74273 21.8969 5.99156C22.6007 6.24203 23.182 6.81023 23.4473 7.50914C23.5479 7.76507 23.5982 8.03796 23.6245 8.31086C24.0964 12.8499 24.5689 17.3884 25.042 21.927C25.0802 22.2545 25.1027 22.5892 25.0398 22.9157C24.9123 23.6605 24.4448 24.3381 23.7907 24.7177C23.363 24.9725 22.8627 25.0917 22.3661 25.0835C16.7683 25.083 11.1705 25.0841 5.57211 25.0824C4.77258 25.0923 3.97742 24.7171 3.48523 24.086C3.05429 23.5473 2.85523 22.8359 2.93453 22.1517C3.41906 17.4891 3.90359 12.8264 4.39195 8.16429C4.49203 7.15093 5.24179 6.24367 6.21742 5.95273C6.8589 5.75531 7.53922 5.85976 8.19929 5.83351C8.3382 4.59812 8.93156 3.42125 9.84539 2.57796C10.6799 1.79648 11.7748 1.29609 12.9145 1.19109Z" fill="#00966B"/>
</svg>
