<svg width="28" height="28" viewBox="0 0 28 28" fill="none" xmlns="http://www.w3.org/2000/svg">
<path d="M6.75776 3.53829C7.00058 3.50219 7.24667 3.49782 7.49222 3.50001C11.9033 3.50055 16.3149 3.49946 20.726 3.50055C21.5059 3.5022 22.283 3.7554 22.9135 4.21368C23.7038 4.7786 24.2654 5.65524 24.4377 6.61173C24.5192 7.0279 24.4973 7.45337 24.5 7.87446C24.5 11.9574 24.5 16.0399 24.5 20.1223C24.4973 20.5428 24.5192 20.9677 24.4382 21.3828C24.2649 22.3535 23.6901 23.2427 22.8824 23.8077C22.2431 24.2627 21.4583 24.5066 20.6741 24.5C16.2067 24.4995 11.7392 24.5006 7.27183 24.4995C6.37495 24.4978 5.48628 24.1588 4.81253 23.5687C3.99659 22.8676 3.50003 21.8083 3.50058 20.7309C3.49948 16.2449 3.49948 11.7589 3.50058 7.2729C3.50112 6.42907 3.80081 5.59126 4.32909 4.93391C4.92464 4.18579 5.80839 3.66954 6.75776 3.53829ZM6.78073 5.31454C6.15948 5.46712 5.62519 5.93415 5.39495 6.53134C5.18003 7.05032 5.26808 7.62126 5.25058 8.16649C11.0835 8.16704 16.9165 8.16704 22.7495 8.16649C22.7467 7.8318 22.7571 7.49766 22.744 7.16352C22.7134 6.56688 22.4028 5.99157 21.9182 5.64266C21.5628 5.37798 21.1182 5.24673 20.6768 5.25001C16.3182 5.24946 11.9591 5.25055 7.6005 5.25001C7.32651 5.24891 7.04761 5.2429 6.78073 5.31454ZM5.25112 9.91595C5.24894 13.5018 5.25058 17.0877 5.25058 20.6735C5.238 21.2844 5.51089 21.8941 5.98503 22.2819C6.358 22.5931 6.84417 22.7571 7.32925 22.75C11.7759 22.75 16.2225 22.7506 20.6692 22.7495C21.2171 22.7588 21.7684 22.5471 22.1545 22.155C22.5449 21.7689 22.7582 21.2199 22.7495 20.6724C22.75 17.0871 22.7511 13.5018 22.7495 9.91649C16.9165 9.91649 11.0835 9.91704 5.25112 9.91595Z" fill="#00966B"/>
<path d="M15.6658 14.0366C15.9644 13.9809 16.2696 14.0049 16.5715 14C17.2294 14.0055 17.8873 13.988 18.5446 14.0093C19.5224 14.0738 20.3657 14.9357 20.4105 15.9146C20.4248 16.5353 20.4127 17.1566 20.4165 17.7773C20.4111 18.1995 20.4532 18.637 20.3012 19.0411C20.0337 19.8242 19.2572 20.4028 18.427 20.4143C17.6269 20.4192 16.8269 20.417 16.0273 20.4154C15.4023 20.4137 14.793 20.0993 14.4184 19.6022C14.1384 19.2391 13.9913 18.7797 14.0001 18.322C14.0023 17.5372 13.9957 16.7519 14.0033 15.9677C14.0225 15.0407 14.7564 14.1985 15.6658 14.0366ZM15.9273 15.7702C15.8026 15.8123 15.7397 15.9485 15.7506 16.0737C15.7506 16.8416 15.7479 17.6094 15.7517 18.3766C15.7391 18.5522 15.9081 18.6889 16.0771 18.6665C16.8427 18.6659 17.6083 18.6687 18.374 18.6648C18.5348 18.6769 18.678 18.5325 18.6649 18.3717C18.6671 17.5886 18.6698 16.8055 18.6638 16.0223C18.6682 15.8698 18.5271 15.7423 18.3773 15.7516C17.6477 15.7467 16.9182 15.7527 16.1887 15.7489C16.1012 15.7522 16.0109 15.7423 15.9273 15.7702Z" fill="#00966B"/>
</svg>
