<svg width="28" height="28" viewBox="0 0 28 28" fill="none" xmlns="http://www.w3.org/2000/svg">
<path d="M10.5536 2.85306C12.6547 2.19899 14.9417 2.16563 17.0641 2.74368C18.8907 3.23751 20.5871 4.19345 21.9669 5.48735C23.2433 6.68118 24.249 8.16376 24.8795 9.79399C25.8546 12.291 25.9224 15.1288 25.0715 17.6712C24.4661 19.4994 23.3948 21.169 21.9926 22.4881C20.5532 23.8465 18.7644 24.8347 16.8432 25.3143C13.9661 26.0455 10.8128 25.6211 8.23922 24.138C6.58547 23.1984 5.16907 21.8466 4.15024 20.2409C2.97555 18.4056 2.34172 16.2329 2.33461 14.0541C2.31493 13.7506 2.45602 13.4384 2.71196 13.2694C3.03899 13.032 3.52899 13.072 3.81446 13.3574C4.00422 13.5341 4.09172 13.796 4.08516 14.052C4.09118 15.458 4.39688 16.8634 4.98532 18.1415C5.77063 19.8581 7.06071 21.3391 8.65211 22.3546C10.2211 23.3631 12.0805 23.9088 13.9453 23.9143C16.1197 23.9345 18.2935 23.2127 20.0178 21.8865C21.5376 20.7309 22.7095 19.1253 23.345 17.325C23.8957 15.7774 24.0483 14.0924 23.7973 12.4704C23.5364 10.7543 22.8085 9.11368 21.7159 7.76509C20.562 6.33173 18.9995 5.23087 17.2599 4.63095C15.4345 3.99821 13.4231 3.91181 11.5506 4.38813C9.33133 4.94595 7.32321 6.30767 5.98774 8.16485C6.63579 8.17142 7.28438 8.16103 7.93243 8.16978C8.41586 8.17907 8.82055 8.65267 8.75602 9.13173C8.72102 9.57142 8.31086 9.93235 7.87063 9.91595C6.61336 9.91813 5.35664 9.9154 4.09938 9.91704C3.93586 9.91649 3.77016 9.92579 3.60829 9.89626C3.26922 9.82407 2.98266 9.53477 2.93016 9.1897C2.90828 9.04368 2.91758 8.89548 2.91594 8.74837C2.91758 7.49165 2.91594 6.23493 2.91703 4.97821C2.89899 4.60087 3.15493 4.23337 3.51313 4.11579C4.06493 3.90689 4.70805 4.38978 4.66649 4.97712C4.66758 5.65306 4.66539 6.32899 4.66703 7.00493C6.13211 5.05149 8.21844 3.5711 10.5536 2.85306Z" fill="#00966B"/>
<path d="M12.8335 8.47768C12.8084 8.01338 13.207 7.57697 13.6741 7.57151C14.1433 7.54088 14.5819 7.94885 14.5808 8.41971C14.5868 10.4743 14.5808 12.5295 14.5841 14.5841C15.8479 14.583 17.1117 14.583 18.3761 14.5841C18.766 14.5737 19.1363 14.8537 19.232 15.2316C19.3359 15.5991 19.1647 16.0202 18.8327 16.2099C18.6643 16.3155 18.4603 16.3396 18.2656 16.3341C16.7513 16.3319 15.237 16.3346 13.7227 16.333C13.2595 16.3489 12.8297 15.942 12.8352 15.4749C12.8308 13.1425 12.8346 10.8101 12.8335 8.47768Z" fill="#00966B"/>
</svg>
