<svg width="28" height="28" viewBox="0 0 28 28" fill="none" xmlns="http://www.w3.org/2000/svg">
<path d="M13.1545 2.39586C14.3314 2.2225 15.5613 2.41664 16.6212 2.95914C17.9988 3.65039 19.0788 4.90875 19.5497 6.37656C19.95 7.6032 19.9238 8.96328 19.4748 10.173C18.9788 11.5276 17.9616 12.6809 16.6802 13.3432C15.4919 13.9683 14.082 14.1537 12.7706 13.8677C11.3597 13.5658 10.0789 12.7143 9.24603 11.5369C8.51103 10.5126 8.12657 9.24328 8.17032 7.98328C8.20915 6.51219 8.84189 5.07062 9.88861 4.03758C10.7647 3.15984 11.9274 2.57469 13.1545 2.39586ZM13.3175 4.13984C12.0329 4.34383 10.8784 5.21008 10.3206 6.38531C9.83556 7.38445 9.78634 8.58211 10.1806 9.61953C10.4273 10.2741 10.8467 10.8626 11.3859 11.3083C12.0821 11.8923 12.9801 12.227 13.8879 12.2478C14.8056 12.2752 15.7309 11.9859 16.462 11.4297C17.1478 10.9156 17.6619 10.1779 17.908 9.35758C18.1781 8.46234 18.1344 7.47469 17.7784 6.60953C17.3906 5.65523 16.625 4.85953 15.6827 4.44226C14.9477 4.10812 14.1127 4.00914 13.3175 4.13984Z" fill="#00966B"/>
<path d="M5.36048 17.0089C5.80345 16.5654 6.42962 16.3171 7.0558 16.3335C11.7217 16.3346 16.3871 16.3308 21.0531 16.3352C22.0068 16.339 22.9031 17.0029 23.2061 17.9036C23.3319 18.2459 23.3412 18.6145 23.3346 18.9749C23.3341 19.4551 23.3346 19.9347 23.3346 20.4148C23.2996 20.4154 23.2291 20.417 23.1941 20.4181C23.024 21.2986 22.6122 22.1271 22.0276 22.8058C21.3615 23.5867 20.4898 24.1702 19.5563 24.5842C17.6657 25.4248 15.5674 25.7113 13.5111 25.6583C11.7513 25.6036 9.97994 25.282 8.37103 24.5498C7.25103 24.0395 6.21361 23.2865 5.51634 22.2594C5.13626 21.7044 4.86775 21.0716 4.74689 20.4094C4.63587 19.8286 4.67197 19.2347 4.66814 18.6473C4.66705 18.037 4.92517 17.4355 5.36048 17.0089ZM6.79384 18.1158C6.54884 18.1912 6.399 18.4505 6.4165 18.6998C6.42689 19.2642 6.37111 19.8412 6.52587 20.3919C6.73369 21.1958 7.30845 21.852 7.97728 22.3191C9.15251 23.1432 10.5651 23.5528 11.97 23.7672C13.7211 24.0231 15.5242 23.952 17.2435 23.5277C18.3231 23.2553 19.3862 22.832 20.2656 22.1364C20.8168 21.7 21.2735 21.1176 21.4621 20.4323C21.63 19.8702 21.5737 19.279 21.5835 18.7015C21.5956 18.4915 21.5004 18.2716 21.3145 18.1655C21.1384 18.0567 20.9235 18.0873 20.7271 18.083C16.2433 18.0835 11.7595 18.0835 7.27564 18.083C7.11486 18.0862 6.94916 18.0677 6.79384 18.1158Z" fill="#00966B"/>
</svg>
