<svg width="30" height="28" viewBox="0 0 30 28" fill="none" xmlns="http://www.w3.org/2000/svg">
<path d="M14.3836 2.98756C15.1617 2.8492 15.9937 2.98045 16.6746 3.36108C16.9031 3.4874 17.11 3.6449 17.3186 3.79803C19.5346 5.42826 21.7512 7.05795 23.9678 8.68764C24.3158 8.94631 24.6791 9.19186 24.9814 9.49865C25.7994 10.3064 26.2605 11.4138 26.2494 12.524C26.2488 16.0426 26.2529 19.5612 26.2477 23.0792C26.2488 24.1445 25.2287 25.0906 24.0873 25.0819C18.0896 25.0857 12.0914 25.0813 6.09375 25.084C5.83887 25.0862 5.58105 25.0709 5.33555 25.0015C4.43965 24.7663 3.7582 23.9542 3.75234 23.0819C3.74707 19.6344 3.75176 16.1869 3.75 12.7394C3.69141 11.5691 4.13379 10.3802 4.99512 9.52272C5.22715 9.28264 5.49726 9.07975 5.77031 8.88233C8.16211 7.12412 10.5527 5.36428 12.9451 3.60608C13.3629 3.29654 13.8592 3.07998 14.3836 2.98756ZM14.6607 4.71733C14.4047 4.77311 14.1838 4.91311 13.9857 5.06897C11.5518 6.85998 9.1166 8.64936 6.68203 10.4398C6.16758 10.821 5.80488 11.3755 5.67891 11.9771C5.61738 12.2467 5.62383 12.5245 5.625 12.799C5.62617 16.2077 5.62324 19.6169 5.62617 23.0262C5.60449 23.2083 5.78789 23.3576 5.97715 23.333C11.9941 23.3335 18.0117 23.3335 24.0287 23.333C24.2145 23.3548 24.3932 23.2077 24.3738 23.0294C24.3768 19.5267 24.3738 16.0234 24.375 12.5207C24.3891 11.7129 23.9771 10.9134 23.2922 10.4201C20.823 8.60287 18.3527 6.78615 15.8818 4.97053C15.5449 4.71678 15.0814 4.61506 14.6607 4.71733Z" fill="#00966B"/>
</svg>
