<svg width="28" height="28" viewBox="0 0 28 28" fill="none" xmlns="http://www.w3.org/2000/svg">
<path d="M6.75282 2.39149C6.96008 2.3472 7.17282 2.33352 7.38446 2.33298C11.8306 2.33462 16.2766 2.33134 20.7233 2.33462C21.8077 2.32641 22.8348 3.0729 23.1831 4.09556C23.2991 4.4122 23.3374 4.75126 23.3335 5.08704C23.3324 11.0666 23.3346 17.0466 23.3324 23.0267C23.3417 23.8815 22.8955 24.7199 22.1906 25.2006C21.7481 25.5112 21.2078 25.6698 20.6686 25.6665C16.205 25.6659 11.7414 25.6681 7.27782 25.6654C6.2054 25.6709 5.18657 24.943 4.82727 23.9362C4.71133 23.6277 4.66485 23.2974 4.66704 22.9699C4.66649 16.9898 4.66649 11.0097 4.66704 5.02962C4.66375 4.67032 4.72282 4.30829 4.86172 3.97579C5.18219 3.18063 5.91282 2.56704 6.75282 2.39149ZM7.06563 4.11087C6.68227 4.20165 6.40227 4.57954 6.41704 4.97165C6.41649 10.9895 6.41649 17.0078 6.41704 23.0256C6.39243 23.4932 6.80258 23.9247 7.2729 23.9149C11.7392 23.9187 16.2061 23.9154 20.6724 23.9165C21.0186 23.934 21.3615 23.73 21.5037 23.4134C21.6103 23.1897 21.5797 22.937 21.5835 22.6975C21.583 16.7902 21.5841 10.8823 21.583 4.97438C21.6076 4.50516 21.1952 4.07368 20.7238 4.08462C16.2597 4.08134 11.795 4.08462 7.33086 4.08298C7.24172 4.08517 7.15204 4.08954 7.06563 4.11087Z" fill="#00966B"/>
<path d="M9.9772 7.02789C10.0948 6.9989 10.2173 7 10.3376 6.9989C11.2684 7.00218 12.1986 6.99781 13.1294 7.00109C13.5226 6.9907 13.8956 7.27945 13.9852 7.66226C14.1471 8.21789 13.6407 8.80687 13.0698 8.75054C12.1029 8.74781 11.1355 8.75382 10.1692 8.74726C9.74915 8.74507 9.36962 8.39617 9.32806 7.9789C9.26736 7.55726 9.56486 7.12742 9.9772 7.02789Z" fill="#00966B"/>
<path d="M9.97226 12.2795C10.0729 12.2533 10.1779 12.2506 10.2812 12.2495C12.7788 12.2511 15.2758 12.2495 17.7729 12.25C18.1716 12.232 18.5576 12.5174 18.6501 12.9063C18.7551 13.2853 18.5642 13.7184 18.2142 13.8961C17.9976 14.0203 17.7406 14 17.5005 14.0006C15.0751 13.9989 12.6498 14.0011 10.2244 13.9995C9.90116 14.0104 9.58124 13.8299 9.42866 13.5439C9.14812 13.0725 9.44015 12.402 9.97226 12.2795Z" fill="#00966B"/>
<path d="M9.97172 15.7795C10.0734 15.7527 10.179 15.7505 10.2834 15.7495C12.7991 15.7527 15.3141 15.7462 17.8298 15.7522C18.3061 15.7516 18.7173 16.2006 18.6763 16.6753C18.6616 17.1363 18.2328 17.523 17.7734 17.4995C15.2573 17.5 12.7405 17.5 10.2244 17.4995C9.90117 17.5098 9.5807 17.3299 9.42867 17.0439C9.14813 16.573 9.44016 15.902 9.97172 15.7795Z" fill="#00966B"/>
<path d="M9.97445 19.279C10.0734 19.2533 10.1762 19.2506 10.278 19.2495C11.993 19.2511 13.708 19.2495 15.423 19.25C15.7505 19.2341 16.0803 19.4113 16.2356 19.7017C16.4024 19.9954 16.374 20.3853 16.1678 20.6522C15.9961 20.8841 15.7062 21.0115 15.4202 21C13.6883 20.9995 11.9563 21.0006 10.2249 20.9995C9.80656 21.0186 9.40679 20.7014 9.33734 20.288C9.24218 19.8516 9.54241 19.3834 9.97445 19.279Z" fill="#00966B"/>
</svg>
