<svg width="42" height="42" viewBox="0 0 42 42" fill="none" xmlns="http://www.w3.org/2000/svg">
<path d="M20.7908 1.76696C21.1353 1.70954 21.4996 1.80223 21.7785 2.01141C24.0655 3.89977 26.6528 5.43376 29.4189 6.50673C31.6239 7.35657 33.9724 7.86844 36.3407 7.87747C37.0305 7.87173 37.6367 8.50008 37.6236 9.18669C37.6269 11.9495 37.6236 14.7123 37.6253 17.4751C37.6113 19.1174 37.6884 20.7679 37.4637 22.4003C37.0158 25.9711 35.5917 29.4057 33.4138 32.2678C31.596 34.6795 29.2819 36.6901 26.7381 38.3053C25.0622 39.3709 23.2854 40.2757 21.4544 41.0419C21.0656 41.1994 20.6333 41.1124 20.2724 40.9254C17.0182 39.5276 13.9191 37.6958 11.3162 35.2775C9.32776 33.4384 7.64776 31.2539 6.45831 28.8159C5.09495 26.0384 4.36979 22.9474 4.37554 19.8524C4.37554 16.2963 4.3739 12.7403 4.37636 9.18423C4.36323 8.55423 4.86936 7.96606 5.49526 7.89059C5.95792 7.85286 6.42386 7.87173 6.88651 7.82743C10.6394 7.54852 14.2103 6.07196 17.3701 4.08188C18.3315 3.47403 19.2601 2.81368 20.1313 2.08196C20.3199 1.92282 20.5464 1.80798 20.7908 1.76696ZM16.2766 7.7536C13.3899 9.20883 10.2342 10.1702 7.00136 10.3901C6.99807 13.1611 7.00054 15.9321 6.99972 18.7031C6.98823 20.0435 6.99479 21.3913 7.20889 22.7186C7.67073 25.8522 9.03573 28.834 11.0635 31.2629C13.691 34.4425 17.2618 36.6918 21 38.348C24.7242 36.7057 28.2762 34.4613 30.9003 31.3064C32.9659 28.8463 34.3506 25.8152 34.8026 22.6316C35.0601 21.0066 34.9912 19.3577 35.0003 17.7188C34.9994 15.2759 35.0011 12.833 34.9986 10.3901C32.6796 10.2277 30.3926 9.692 28.2245 8.85938C25.6298 7.86106 23.1837 6.47391 21.0016 4.75044C19.5357 5.91036 17.9468 6.9136 16.2766 7.7536Z" fill="#00966B"/>
</svg>
