<svg width="28" height="28" viewBox="0 0 28 28" fill="none" xmlns="http://www.w3.org/2000/svg">
<path d="M6.75173 2.3915C6.9765 2.34392 7.20673 2.33189 7.43587 2.33298C9.91486 2.33462 12.3938 2.33189 14.8728 2.33408C15.1233 2.33025 15.3606 2.44619 15.5307 2.62556C18.0447 5.14173 20.562 7.65462 23.0749 10.1713C23.2488 10.3431 23.3406 10.5859 23.333 10.8287C23.3319 14.9122 23.3363 18.9957 23.3313 23.0787C23.3281 24.1227 22.6297 25.1125 21.6585 25.4855C21.2773 25.6397 20.8627 25.6769 20.4553 25.667C16.0798 25.666 11.7048 25.6676 7.32923 25.6665C6.67353 25.6742 6.02056 25.4259 5.53658 24.9829C4.98642 24.4918 4.65993 23.7617 4.66759 23.0235C4.66595 17.0248 4.66704 11.0261 4.66704 5.02798C4.66322 4.64353 4.73267 4.25634 4.89181 3.9058C5.2254 3.14455 5.93743 2.56158 6.75173 2.3915ZM6.99181 4.13384C6.69486 4.23447 6.47009 4.50955 6.42798 4.81962C6.40829 4.999 6.41759 5.18001 6.4165 5.35994C6.41704 11.2476 6.41595 17.1347 6.41704 23.0224C6.39079 23.4927 6.80369 23.9274 7.27728 23.9149C11.6512 23.9192 16.0256 23.9149 20.3995 23.917C20.6325 23.9149 20.8802 23.9384 21.0946 23.8295C21.397 23.6874 21.5928 23.3609 21.583 23.0278C21.5835 19.2407 21.583 15.4536 21.5835 11.6665C20.0949 11.6665 18.6069 11.6665 17.1183 11.6665C16.6414 11.6731 16.1487 11.6791 15.7002 11.4926C14.7148 11.1289 14.0033 10.1298 14.0022 9.07595C13.9973 7.41181 14.0017 5.74767 14 4.08353C11.8661 4.08298 9.73275 4.08408 7.59939 4.08298C7.3965 4.08572 7.1865 4.06494 6.99181 4.13384ZM15.7506 5.32165C15.7495 6.5554 15.7495 7.78916 15.7506 9.02291C15.726 9.47845 16.1126 9.90611 16.572 9.91267C17.8292 9.92197 19.087 9.91431 20.3449 9.9165C18.8147 8.38361 17.2829 6.85236 15.7506 5.32165Z" fill="#00966B"/>
<path d="M9.92036 14.6284C10.0363 14.5895 10.1599 14.5841 10.2813 14.5824C12.7783 14.5846 15.2754 14.5824 17.7718 14.5835C18.0748 14.5742 18.3772 14.7273 18.5391 14.9855C18.736 15.283 18.7207 15.7013 18.5025 15.9835C18.3362 16.2094 18.0568 16.339 17.7773 16.333C15.2595 16.3335 12.7417 16.3341 10.2244 16.333C9.81262 16.351 9.41723 16.0437 9.34067 15.6384C9.24114 15.2173 9.50965 14.7569 9.92036 14.6284Z" fill="#00966B"/>
<path d="M10.0855 18.6753C11.8628 18.655 13.6418 18.6725 15.4197 18.6665C15.7287 18.6528 16.0415 18.8043 16.2061 19.069C16.4085 19.3753 16.3855 19.8089 16.1503 20.0911C15.9775 20.311 15.6959 20.4263 15.4192 20.417C13.6708 20.4149 11.9219 20.4203 10.1736 20.4143C9.74535 20.4138 9.36035 20.0545 9.32644 19.629C9.26847 19.1745 9.62941 18.7201 10.0855 18.6753Z" fill="#00966B"/>
</svg>
