<svg width="28" height="28" viewBox="0 0 28 28" fill="none" xmlns="http://www.w3.org/2000/svg">
<path d="M13.8606 1.17795C14.0902 1.13967 14.3331 1.20147 14.519 1.34092C16.0437 2.59983 17.7685 3.62248 19.6126 4.3378C21.0826 4.90436 22.6483 5.24561 24.2271 5.25163C24.687 5.2478 25.0912 5.6667 25.0824 6.12444C25.0846 7.96631 25.0824 9.80819 25.0835 11.6501C25.0742 12.7449 25.1256 13.8452 24.9758 14.9335C24.6772 17.314 23.7278 19.6038 22.2759 21.5119C21.064 23.1197 19.5213 24.4601 17.8254 25.5369C16.7081 26.2472 15.5236 26.8505 14.303 27.3612C14.0438 27.4662 13.7556 27.4083 13.5149 27.2836C11.3455 26.3517 9.27939 25.1305 7.54415 23.5183C6.21853 22.2922 5.09853 20.8359 4.30556 19.2106C3.39665 17.3589 2.91322 15.2983 2.91704 13.2349C2.91704 10.8642 2.91595 8.4935 2.91759 6.1228C2.90884 5.7028 3.24626 5.31069 3.66353 5.26038C3.97197 5.23522 4.28259 5.2478 4.59103 5.21827C7.09298 5.03233 9.47353 4.04795 11.5801 2.72123C12.221 2.316 12.8401 1.87577 13.4209 1.38795C13.5467 1.28186 13.6976 1.2053 13.8606 1.17795ZM10.8511 5.16905C8.92665 6.1392 6.82283 6.78014 4.66759 6.9267C4.6654 8.77405 4.66704 10.6214 4.6665 12.4687C4.65884 13.3623 4.66322 14.2608 4.80595 15.1457C5.11384 17.2348 6.02384 19.2226 7.37572 20.8419C9.12736 22.9616 11.5079 24.4612 14 25.5653C16.4828 24.4705 18.8508 22.9742 20.6002 20.8709C21.9773 19.2308 22.9004 17.2101 23.2017 15.0877C23.3735 14.0044 23.3275 12.9051 23.3335 11.8125C23.333 10.1839 23.3341 8.5553 23.3324 6.9267C21.7864 6.81842 20.2617 6.46131 18.8163 5.90623C17.0866 5.24069 15.4558 4.31592 14.0011 3.16694C13.0238 3.94022 11.9645 4.60905 10.8511 5.16905Z" fill="#00966B"/>
<path d="M13.4285 7.04155C14.3341 6.9103 15.301 7.09023 16.0584 7.61741C16.6447 8.01554 17.0729 8.62257 17.3004 9.28976C17.6176 10.2287 17.5531 11.2968 17.1002 12.1811C16.829 12.7165 16.4123 13.1786 15.896 13.4876C15.0243 14.0142 13.9316 14.1296 12.956 13.8567C12.1953 13.6445 11.5035 13.1616 11.0791 12.4906C10.2424 11.2169 10.319 9.40952 11.2842 8.22444C11.8109 7.57148 12.6027 7.15913 13.4285 7.04155ZM13.5882 8.7839C13.2234 8.84023 12.8817 9.02999 12.6503 9.31874C12.0592 10.0505 12.1226 11.2541 12.8434 11.8776C13.2322 12.2183 13.7829 12.2844 14.2795 12.2336C14.6508 12.1997 15.0172 12.0444 15.2726 11.7682C15.9447 11.0501 15.9064 9.77046 15.1566 9.12132C14.7306 8.75273 14.1236 8.70351 13.5882 8.7839Z" fill="#00966B"/>
<path d="M10.6274 15.1752C12.827 15.1566 15.0276 15.1703 17.2282 15.1681C18.2542 15.1577 19.1855 16.0327 19.2418 17.0559C19.2517 17.5716 19.285 18.0994 19.145 18.602C19.0706 18.8759 18.8355 19.0531 18.6364 19.2363C17.4278 20.312 15.8381 20.9508 14.2199 20.9951C12.3025 21.0634 10.3737 20.2912 9.03276 18.9202C8.79706 18.6545 8.78229 18.2771 8.7544 17.9408C8.75659 17.4683 8.70026 16.9766 8.87088 16.5244C9.1301 15.7861 9.84432 15.2305 10.6274 15.1752ZM10.7374 16.9236C10.5952 16.9405 10.4907 17.0816 10.5017 17.2216C10.5055 17.4338 10.4787 17.6531 10.5175 17.8615C11.521 18.7917 12.9019 19.3255 14.2746 19.2412C15.4635 19.1805 16.6108 18.6654 17.4831 17.862C17.5192 17.6531 17.4951 17.4355 17.4984 17.2233C17.5142 17.0461 17.3491 16.8973 17.1763 16.917C15.0303 16.9209 12.8833 16.9077 10.7374 16.9236Z" fill="#00966B"/>
</svg>
