<svg width="20" height="20" viewBox="0 0 20 20" fill="none" xmlns="http://www.w3.org/2000/svg">
<path d="M9.99998 19.1667C15.0625 19.1667 19.1666 15.0625 19.1666 10C19.1666 4.9375 15.0625 0.833332 9.99998 0.833332M9.99998 19.1667C4.93748 19.1667 0.833313 15.0625 0.833313 10C0.833313 4.9375 4.93748 0.833332 9.99998 0.833332M9.99998 19.1667C12.5 19.1667 13.3333 15 13.3333 10C13.3333 5 12.5 0.833332 9.99998 0.833332M9.99998 19.1667C7.49998 19.1667 6.66665 15 6.66665 10C6.66665 5 7.49998 0.833332 9.99998 0.833332M1.66665 13.3333H18.3333M1.66665 6.66667H18.3333" stroke="#4C4C4C"/>
</svg>
