<svg width="28" height="28" viewBox="0 0 28 28" fill="none" xmlns="http://www.w3.org/2000/svg">
<path d="M10.5531 3.05758C12.1713 2.33516 14.017 2.15688 15.7506 2.51235C17.424 2.85031 18.9859 3.70016 20.189 4.90985C21.525 6.24313 22.4153 8.01774 22.6663 9.89024C22.7806 10.6712 22.7434 11.4625 22.75 12.2489C22.7538 13.3454 22.7418 14.4424 22.756 15.5384C23.1552 16.3855 23.5878 17.2184 24.0002 18.0595C24.1801 18.4445 24.424 18.8136 24.4727 19.2456C24.5995 20.1551 24.0412 21.1017 23.1891 21.4402C22.9469 21.5403 22.6833 21.5846 22.4219 21.5835C20.7818 21.5835 19.1423 21.583 17.5022 21.5835C17.4984 22.388 17.2113 23.188 16.6939 23.8049C16.0563 24.5864 15.0675 25.0715 14.0574 25.0819C13.1895 25.1021 12.3255 24.7723 11.6813 24.1932C10.9391 23.543 10.4967 22.5706 10.4973 21.5835C8.82 21.5813 7.14219 21.5873 5.46493 21.5808C4.42149 21.5589 3.535 20.6095 3.51204 19.5798C3.4825 19.1565 3.63782 18.7507 3.83797 18.3859C4.26836 17.5208 4.69711 16.6551 5.12915 15.7905C5.18329 15.6745 5.26477 15.5613 5.2511 15.4268C5.24946 14.0399 5.24891 12.653 5.2511 11.2662C5.25602 9.54133 5.7668 7.82195 6.70305 6.37328C7.63055 4.92789 8.9786 3.75047 10.5531 3.05758ZM13.1009 4.14203C11.3061 4.3668 9.6425 5.36375 8.54383 6.79274C7.55563 8.06039 7.00493 9.65945 7.0011 11.2667C6.99891 12.7438 7.00055 14.2209 7.00055 15.698C7.00493 15.8676 6.96555 16.0349 6.8868 16.1848C6.35961 17.2441 5.83352 18.3045 5.30633 19.3638C5.25329 19.4688 5.2079 19.6027 5.28008 19.711C5.355 19.8308 5.50977 19.8352 5.63555 19.8341C11.2328 19.8319 16.8301 19.8346 22.4273 19.8324C22.6455 19.8696 22.8446 19.6383 22.7243 19.4338C22.242 18.445 21.7459 17.4623 21.2581 16.4757C21.1488 16.2444 20.9945 16.018 21.0011 15.7511C20.9978 14.1827 21.0022 12.6131 20.9989 11.0447C20.9934 10.0702 20.7867 9.09672 20.3864 8.2075C19.7553 6.79219 18.637 5.60109 17.2627 4.88414C15.9961 4.21477 14.5201 3.95774 13.1009 4.14203ZM12.2478 21.5841C12.2506 22.1244 12.5054 22.6609 12.944 22.983C13.5253 23.4292 14.3894 23.4484 14.9909 23.03C15.4662 22.7134 15.7495 22.1517 15.7522 21.5835C14.5841 21.583 13.4159 21.583 12.2478 21.5841Z" fill="#00966B"/>
</svg>
