<svg width="28" height="28" viewBox="0 0 28 28" fill="none" xmlns="http://www.w3.org/2000/svg">
<path d="M23.2838 24.4841C23.1438 24.5 23.0027 24.5005 22.8621 24.5005C16.882 24.4978 10.9014 24.5027 4.92134 24.4984C3.87517 24.5006 2.94001 23.5807 2.92032 22.5362C2.91212 19.3988 2.91923 16.2613 2.91649 13.1245C2.92196 12.7143 2.88149 12.291 3.02478 11.8978C3.2911 11.0797 4.11306 10.4852 4.97493 10.5006C10.8451 10.4989 16.7147 10.5005 22.5843 10.5C22.9524 10.5 23.3313 10.4792 23.683 10.6072C24.4891 10.8713 25.0852 11.6725 25.0819 12.524C25.0841 15.8413 25.0841 19.1587 25.0819 22.476C25.0912 23.4702 24.2703 24.3797 23.2838 24.4841ZM21.5813 22.7495C21.5863 22.2474 21.8067 21.7503 22.1917 21.4249C22.5039 21.1482 22.919 21.0066 23.3335 20.9973C23.333 18.6659 23.3335 16.3346 23.3335 14.0033C22.919 13.9945 22.5039 13.8518 22.1911 13.5756C21.8067 13.2502 21.5863 12.7526 21.5819 12.2506C16.5271 12.2495 11.4729 12.2495 6.41868 12.2506C6.41321 12.687 6.25079 13.1206 5.95056 13.4395C5.62517 13.7966 5.14774 13.9973 4.66649 14.0027C4.66649 16.3341 4.66704 18.6654 4.66649 20.9967C5.09415 21.0049 5.52017 21.1597 5.83735 21.4495C6.20485 21.7749 6.41431 22.26 6.41868 22.7495C11.4729 22.7506 16.5271 22.75 21.5813 22.7495Z" fill="#00966B"/>
<path d="M14.2532 21.5731C13.393 21.6426 12.5114 21.3582 11.8574 20.7949C11.1552 20.1994 10.7434 19.3206 10.5831 18.4259C10.3956 17.3425 10.5263 16.1826 11.0556 15.2092C11.3477 14.6552 11.7928 14.181 12.3359 13.8666C13.1857 13.3635 14.2658 13.2787 15.1862 13.6369C15.9135 13.9142 16.5309 14.4594 16.9067 15.1397C17.389 15.9835 17.5574 16.9816 17.4803 17.9435C17.4114 18.7939 17.1298 19.6399 16.6026 20.317C16.0399 21.0383 15.167 21.5097 14.2532 21.5731ZM14.2986 19.8111C14.5841 19.7712 14.8553 19.6383 15.0566 19.431C15.4531 19.034 15.6483 18.4795 15.721 17.9326C15.8003 17.3031 15.7101 16.6436 15.4224 16.0749C15.2168 15.6773 14.8783 15.3114 14.4255 15.2141C13.9284 15.1063 13.347 15.1698 12.9708 15.5427C12.454 16.0481 12.2588 16.7984 12.2517 17.5022C12.2593 18.2055 12.4551 18.9552 12.9724 19.4589C13.3153 19.8018 13.8365 19.8784 14.2986 19.8111Z" fill="#00966B"/>
<path d="M21.2647 18.6364C20.9289 18.7152 20.5592 18.6364 20.2874 18.4231C19.9746 18.1858 19.7991 17.7817 19.8395 17.3912C19.8723 16.9925 20.1299 16.6245 20.4903 16.4517C20.8409 16.2777 21.2795 16.2991 21.6109 16.5069C22.0002 16.741 22.225 17.2156 22.1545 17.6646C22.0948 18.1311 21.7235 18.5352 21.2647 18.6364Z" fill="#00966B"/>
<path d="M7.26306 18.6364C6.87806 18.7283 6.45204 18.6063 6.17478 18.3236C5.84993 18.0059 5.74384 17.4907 5.91665 17.0702C6.10204 16.5796 6.64728 16.2613 7.16626 16.3461C7.70493 16.4128 8.14954 16.9012 8.16485 17.4442C8.20259 17.9911 7.79899 18.5227 7.26306 18.6364Z" fill="#00966B"/>
<path d="M14.8739 8.47931C14.881 8.94142 14.4638 9.35923 14 9.34556C13.5363 9.35814 13.1179 8.94415 13.1267 8.47986C13.1223 7.42712 13.1272 6.37439 13.1245 5.32165C12.8341 5.60822 12.5492 5.90079 12.2577 6.18571C12.0132 6.42743 11.62 6.49634 11.3067 6.35634C11.0015 6.22837 10.7877 5.91392 10.7811 5.58361C10.7685 5.32384 10.8861 5.07228 11.0731 4.89618C11.8672 4.10322 12.6602 3.30915 13.4531 2.51619C13.7178 2.29689 14.116 2.26134 14.4156 2.42868C14.5792 2.5129 14.6891 2.66493 14.8181 2.79017C15.5116 3.48251 16.2034 4.1765 16.8968 4.86775C17.0663 5.02251 17.1954 5.22978 17.2151 5.46165C17.2627 5.84501 17.0215 6.23767 16.6595 6.37056C16.3521 6.49196 15.9802 6.41814 15.744 6.18736C15.4509 5.90189 15.166 5.60931 14.8756 5.32165C14.8739 6.37439 14.8772 7.42657 14.8739 8.47931Z" fill="#00966B"/>
</svg>
